<svg xmlns="http://www.w3.org/2000/svg" width="533" height="435" viewBox="0 0 533 435" version="1.1"><path d="M 456 245.096 C 454.625 245.483, 422.619 245.845, 384.875 245.900 C 347.131 245.955, 314.870 246.276, 313.183 246.613 L 310.117 247.227 309.808 281.863 C 309.501 316.379, 309.491 316.517, 307.032 321.500 C 303.876 327.894, 296.226 335.250, 289.088 338.756 C 284.072 341.219, 282.425 341.500, 273 341.500 C 263.502 341.500, 261.951 341.230, 256.746 338.674 C 249.626 335.178, 242.684 327.543, 239.266 319.449 C 237.174 314.495, 236.666 311.367, 236.233 300.750 L 235.713 288 155.356 288 L 75 288 75.007 305.250 C 75.018 331.715, 77.706 345.215, 86.072 360.824 C 98.461 383.939, 119.911 401.043, 145.500 408.208 L 153.500 410.449 262 410.784 C 376.744 411.139, 379.760 411.041, 393.498 406.507 C 406.872 402.092, 415.154 397.512, 425 389.087 C 433.557 381.765, 436.138 378.918, 442.092 370.241 C 448.626 360.718, 452.313 352.579, 455.595 340.435 C 458.253 330.597, 458.283 330.106, 458.741 290 C 458.995 267.725, 459.045 248.350, 458.852 246.945 C 458.549 244.746, 458.152 244.489, 456 245.096" stroke="none" fill="#1f4076" fill-rule="evenodd"/><path d="M 167.500 21.125 C 159.250 21.469, 150.316 22.268, 147.647 22.902 C 116.728 30.244, 89.731 54.981, 79.329 85.500 C 75.711 96.115, 74.986 107.407, 74.733 157.141 L 74.500 202.782 83.345 203.473 C 88.210 203.854, 124.779 203.836, 164.609 203.434 L 237.028 202.702 236.764 172.101 L 236.500 141.500 225.944 140.959 C 213.599 140.326, 209.561 138.515, 201.656 130.063 C 195.393 123.367, 193.663 119.148, 193.604 110.423 C 193.507 96.183, 202.847 84.047, 216.617 80.520 C 221.668 79.226, 229.597 79.020, 266.066 79.239 L 309.500 79.500 309.761 120.750 L 310.022 162 384.511 162 L 459 162 458.992 136.750 C 458.983 108.686, 457.982 96.663, 454.852 87 C 445.124 56.976, 420.683 33.226, 389.826 23.815 C 382.619 21.616, 381.463 21.575, 318.500 21.287 C 283.300 21.125, 238.300 20.882, 218.500 20.746 C 198.700 20.611, 175.750 20.781, 167.500 21.125" stroke="none" fill="#fa9521" fill-rule="evenodd"/><path d="M 347.324 162.750 C 368.127 162.901, 401.877 162.901, 422.324 162.750 C 442.771 162.598, 425.750 162.475, 384.500 162.475 C 343.250 162.475, 326.521 162.599, 347.324 162.750 M 74.449 244.500 C 74.421 267.050, 74.543 276.613, 74.720 265.750 L 75.041 246 156.021 246 L 237 246 237 224.435 L 237 202.871 155.750 203.185 L 74.500 203.500 74.449 244.500 M 74.389 301.500 C 74.390 308.650, 74.550 311.444, 74.742 307.708 C 74.935 303.973, 74.934 298.123, 74.739 294.708 C 74.545 291.294, 74.387 294.350, 74.389 301.500 M 169.750 411.706 C 170.988 411.944, 173.012 411.944, 174.250 411.706 C 175.488 411.467, 174.475 411.272, 172 411.272 C 169.525 411.272, 168.512 411.467, 169.750 411.706 M 366.250 411.689 C 367.212 411.941, 368.788 411.941, 369.750 411.689 C 370.712 411.438, 369.925 411.232, 368 411.232 C 366.075 411.232, 365.288 411.438, 366.250 411.689" stroke="none" fill="#a98f43" fill-rule="evenodd"/><path d="M 309.788 225.277 L 309.500 246.554 316 245.838 C 319.575 245.444, 353.479 245.076, 391.342 245.021 C 452.932 244.931, 460.121 244.758, 459.592 243.379 C 459.266 242.530, 459 233.323, 459 222.918 L 459 204 384.538 204 L 310.076 204 309.788 225.277 M 74.986 265.250 C 74.979 275.837, 74.731 285.400, 74.435 286.500 C 73.900 288.490, 74.321 288.499, 155.449 288.238 L 237 287.977 237 266.988 L 237 246 156 246 L 75 246 74.986 265.250 M 236.355 297.500 C 236.352 302.450, 236.521 304.601, 236.731 302.280 C 236.940 299.959, 236.943 295.909, 236.736 293.280 C 236.530 290.651, 236.358 292.550, 236.355 297.500 M 190.250 411.748 C 198.362 411.916, 211.637 411.916, 219.750 411.748 C 227.862 411.580, 221.225 411.442, 205 411.442 C 188.775 411.442, 182.137 411.580, 190.250 411.748 M 328.308 411.748 C 335.353 411.920, 346.603 411.919, 353.308 411.747 C 360.014 411.574, 354.250 411.433, 340.500 411.434 C 326.750 411.434, 321.264 411.576, 328.308 411.748" stroke="none" fill="#2d7281" fill-rule="evenodd"/><path d="M 309.788 225.277 L 309.500 246.554 316 245.838 C 319.575 245.444, 353.479 245.076, 391.342 245.021 C 452.932 244.931, 460.121 244.758, 459.592 243.379 C 459.266 242.530, 459 233.323, 459 222.918 L 459 204 384.538 204 L 310.076 204 309.788 225.277 M 74.986 265.250 C 74.979 275.837, 74.731 285.400, 74.435 286.500 C 73.900 288.490, 74.321 288.499, 155.449 288.238 L 237 287.977 237 266.988 L 237 246 156 246 L 75 246 74.986 265.250 M 236.355 297.500 C 236.352 302.450, 236.521 304.601, 236.731 302.280 C 236.940 299.959, 236.943 295.909, 236.736 293.280 C 236.530 290.651, 236.358 292.550, 236.355 297.500 M 190.250 411.748 C 198.362 411.916, 211.637 411.916, 219.750 411.748 C 227.862 411.580, 221.225 411.442, 205 411.442 C 188.775 411.442, 182.137 411.580, 190.250 411.748 M 328.308 411.748 C 335.353 411.920, 346.603 411.919, 353.308 411.747 C 360.014 411.574, 354.250 411.433, 340.500 411.434 C 326.750 411.434, 321.264 411.576, 328.308 411.748" stroke="none" fill="#2d7281" fill-rule="evenodd"/><path d="M 310 183.500 L 310 204 384.500 204 L 459 204 459 183.500 L 459 163 384.500 163 L 310 163 310 183.500" stroke="none" fill="#0aad94" fill-rule="evenodd"/><path d="M 353.250 245.750 C 371.813 245.902, 402.188 245.902, 420.750 245.750 C 439.313 245.597, 424.125 245.472, 387 245.472 C 349.875 245.472, 334.688 245.597, 353.250 245.750 M 254.250 411.749 C 265.663 411.909, 284.338 411.909, 295.750 411.749 C 307.163 411.588, 297.825 411.457, 275 411.457 C 252.175 411.457, 242.838 411.588, 254.250 411.749" stroke="none" fill="#1e577a" fill-rule="evenodd"/></svg>